<?xml version="1.0" encoding="iso-8859-1"?>
<!-- Uploaded to: SVG Repo, www.svgrepo.com, Generator: SVG Repo Mixer Tools -->
<svg height="800px" width="800px" version="1.1" id="Layer_1" xmlns="http://www.w3.org/2000/svg" xmlns:xlink="http://www.w3.org/1999/xlink" 
	 viewBox="0 0 512 512" xml:space="preserve">
<path style="fill:#EC5565;" d="M0,256.006C0,397.402,114.606,512.004,255.996,512C397.394,512.004,512,397.402,512,256.006
	C512.009,114.61,397.394,0,255.996,0C114.606,0,0,114.614,0,256.006z"/>
<path style="fill:#D94453;" d="M507.706,302.526c-0.178-0.176-0.353-0.355-0.531-0.531
	c-0.495-0.517-161.766-161.769-162.272-162.272c-18.502-19.363-45.743-29.323-72.82-29.323h-32.164
	C192.253,110.4,144,141.178,144,200v27.003l-65.282,72.535c-0.534,0.594-0.939,1.266-1.252,1.972
	c-0.073,0.163-0.096,0.341-0.158,0.511c-0.246,0.686-0.387,1.387-0.427,2.112c-0.009,0.141-0.081,0.258-0.081,0.4v89.6
	c0,2.454,1.263,4.529,3.092,5.889c0.436,0.588,99.509,99.66,100.096,100.096c0.164,0.221,0.388,0.374,0.571,0.571
	C204.407,508.032,229.738,512,255.997,512C381.499,512.003,485.82,421.694,507.706,302.526z"/>
<path style="fill:#F4F6F9;" d="M435.119,304.134c-0.039-0.725-0.18-1.426-0.427-2.112c-0.061-0.17-0.084-0.348-0.158-0.511
	c-0.314-0.707-0.718-1.378-1.252-1.973L368,227.003V200c0-58.822-48.253-89.6-95.918-89.6h-32.163
	c-47.666,0-95.918,30.778-95.918,89.6v27.003l-65.282,72.535c-0.535,0.594-0.94,1.266-1.252,1.973
	c-0.073,0.163-0.097,0.341-0.158,0.511c-0.246,0.686-0.387,1.387-0.427,2.112c-0.01,0.14-0.082,0.257-0.082,0.399v89.6
	c0,4.124,3.343,7.467,7.467,7.467s7.467-3.343,7.467-7.467v-29.867h328.533v29.867c0,4.124,3.343,7.467,7.467,7.467
	c4.124,0,7.467-3.343,7.467-7.467v-89.6C435.2,304.391,435.128,304.274,435.119,304.134z M239.918,125.333h32.163
	c39.003,0,80.985,23.366,80.985,74.667v22.4h-44.545c4.509-6.172,7.212-13.822,7.212-22.403c0-21.281-16.049-37.33-37.333-37.33
	h-44.8c-21.284,0-37.333,16.049-37.333,37.33c0,8.581,2.703,16.233,7.212,22.403h-44.544V200
	C158.933,148.7,200.915,125.333,239.918,125.333z M211.2,199.997c0-11.131,7.693-22.397,22.4-22.397h44.8
	c14.707,0,22.4,11.266,22.4,22.397c0,11.134-7.693,22.403-22.4,22.403h-44.8C218.893,222.4,211.2,211.131,211.2,199.997z
	 M154.791,237.333h202.417l53.761,59.733H101.03L154.791,237.333z M91.733,349.333V312h328.533v37.333H91.733z"/>
</svg>