<?xml version="1.0" ?>
<!DOCTYPE svg  PUBLIC '-//W3C//DTD SVG 1.1//EN'  'http://www.w3.org/Graphics/SVG/1.1/DTD/svg11.dtd'>
<!-- Uploaded to: SVG Repo, www.svgrepo.com, Generator: SVG Repo Mixer Tools -->
<svg width="800px" height="800px" viewBox="0 0 512 512" enable-background="new 0 0 512 512" id="Layer_1" version="1.1" xml:space="preserve" xmlns="http://www.w3.org/2000/svg" xmlns:xlink="http://www.w3.org/1999/xlink">
<g>
<g>
<path d="M403.5,166.5v45H387c-6.63,0-12,5.37-12,12v61H137v-61c0-6.63-5.37-12-12-12h-16.5v-45    c0-6.63,5.37-12,12-12h271C398.13,154.5,403.5,159.87,403.5,166.5z" fill="#F16259"/>
<path d="M375,294.5H137c-5.523,0-10-4.477-10-10v-61c0-1.103-0.897-2-2-2h-16.5c-5.523,0-10-4.477-10-10v-45    c0-12.131,9.869-22,22-22h271c12.131,0,22,9.869,22,22v45c0,5.523-4.478,10-10,10H387c-1.103,0-2,0.897-2,2v61    C385,290.023,380.522,294.5,375,294.5z M147,274.5h218v-51c0-12.131,9.869-22,22-22h6.5v-35c0-1.103-0.897-2-2-2h-271    c-1.103,0-2,0.897-2,2v35h6.5c12.131,0,22,9.869,22,22V274.5z" fill="#444B54"/>
</g>
<g>
<path d="M178.5,193.833h-0.333c-5.523,0-10-4.477-10-10s4.477-10,10-10h0.333c5.523,0,10,4.477,10,10    S184.023,193.833,178.5,193.833z" fill="#444B54"/>
</g>
<g>
<path d="M178.333,229.5H178c-5.523,0-10-4.477-10-10s4.477-10,10-10h0.333c5.523,0,10,4.477,10,10    S183.856,229.5,178.333,229.5z" fill="#444B54"/>
</g>
<g>
<path d="M256.25,193.833h-0.333c-5.523,0-10-4.477-10-10s4.477-10,10-10h0.333c5.523,0,10,4.477,10,10    S261.772,193.833,256.25,193.833z" fill="#444B54"/>
</g>
<g>
<path d="M256.083,229.5h-0.333c-5.523,0-10-4.477-10-10s4.477-10,10-10h0.333c5.522,0,10,4.477,10,10    S261.605,229.5,256.083,229.5z" fill="#444B54"/>
</g>
<g>
<path d="M336.249,193.833h-0.334c-5.522,0-10-4.477-10-10s4.478-10,10-10h0.334c5.522,0,10,4.477,10,10    S341.771,193.833,336.249,193.833z" fill="#444B54"/>
</g>
<g>
<path d="M336.082,229.5h-0.333c-5.522,0-10-4.477-10-10s4.478-10,10-10h0.333c5.522,0,10,4.477,10,10    S341.604,229.5,336.082,229.5z" fill="#444B54"/>
</g>
<g>
<path d="M375,294.5H137c-5.523,0-10-4.477-10-10v-61c0-1.103-0.897-2-2-2h-16.5c-5.523,0-10-4.477-10-10v-45    c0-12.131,9.869-22,22-22h271c12.131,0,22,9.869,22,22v45c0,5.523-4.478,10-10,10H387c-1.103,0-2,0.897-2,2v61    C385,290.023,380.522,294.5,375,294.5z M147,274.5h218v-51c0-12.131,9.869-22,22-22h6.5v-35c0-1.103-0.897-2-2-2h-271    c-1.103,0-2,0.897-2,2v35h6.5c12.131,0,22,9.869,22,22V274.5z" fill="#444B54"/>
</g>
<g>
<path d="M420,367.5H92c-12.131,0-22-9.869-22-22v-122c0-12.131,9.869-22,22-22h33c12.131,0,22,9.869,22,22v51h218    v-51c0-12.131,9.869-22,22-22h33c12.131,0,22,9.869,22,22v122C442,357.631,432.131,367.5,420,367.5z M92,221.5    c-1.103,0-2,0.897-2,2v122c0,1.103,0.897,2,2,2h328c1.103,0,2-0.897,2-2v-122c0-1.103-0.897-2-2-2h-33c-1.103,0-2,0.897-2,2v61    c0,5.523-4.478,10-10,10H137c-5.523,0-10-4.477-10-10v-61c0-1.103-0.897-2-2-2H92z" fill="#444B54"/>
</g>
<g>
<path d="M178.5,193.833h-0.333c-5.523,0-10-4.477-10-10s4.477-10,10-10h0.333c5.523,0,10,4.477,10,10    S184.023,193.833,178.5,193.833z" fill="#444B54"/>
</g>
<g>
<path d="M178.333,229.5H178c-5.523,0-10-4.477-10-10s4.477-10,10-10h0.333c5.523,0,10,4.477,10,10    S183.856,229.5,178.333,229.5z" fill="#444B54"/>
</g>
<g>
<path d="M256.25,193.833h-0.333c-5.523,0-10-4.477-10-10s4.477-10,10-10h0.333c5.523,0,10,4.477,10,10    S261.772,193.833,256.25,193.833z" fill="#444B54"/>
</g>
<g>
<path d="M256.083,229.5h-0.333c-5.523,0-10-4.477-10-10s4.477-10,10-10h0.333c5.522,0,10,4.477,10,10    S261.605,229.5,256.083,229.5z" fill="#444B54"/>
</g>
<g>
<path d="M336.249,193.833h-0.334c-5.522,0-10-4.477-10-10s4.478-10,10-10h0.334c5.522,0,10,4.477,10,10    S341.771,193.833,336.249,193.833z" fill="#444B54"/>
</g>
<g>
<path d="M336.082,229.5h-0.333c-5.522,0-10-4.477-10-10s4.478-10,10-10h0.333c5.522,0,10,4.477,10,10    S341.604,229.5,336.082,229.5z" fill="#444B54"/>
</g>
<g>
<path d="M432,223.5v122c0,6.63-5.37,12-12,12H92c-6.63,0-12-5.37-12-12v-122c0-6.63,5.37-12,12-12h33    c6.63,0,12,5.37,12,12v61h238v-61c0-6.63,5.37-12,12-12h33C426.63,211.5,432,216.87,432,223.5z" fill="#D0C144"/>
<path d="M420,367.5H92c-12.131,0-22-9.869-22-22v-122c0-12.131,9.869-22,22-22h33c12.131,0,22,9.869,22,22v51h218    v-51c0-12.131,9.869-22,22-22h33c12.131,0,22,9.869,22,22v122C442,357.631,432.131,367.5,420,367.5z M92,221.5    c-1.103,0-2,0.897-2,2v122c0,1.103,0.897,2,2,2h328c1.103,0,2-0.897,2-2v-122c0-1.103-0.897-2-2-2h-33c-1.103,0-2,0.897-2,2v61    c0,5.523-4.478,10-10,10H137c-5.523,0-10-4.477-10-10v-61c0-1.103-0.897-2-2-2H92z" fill="#444B54"/>
</g>
</g>
</svg>