<?xml version="1.0" encoding="iso-8859-1"?>
<!-- Uploaded to: SVG Repo, www.svgrepo.com, Generator: SVG Repo Mixer Tools -->
<svg height="800px" width="800px" version="1.1" id="Layer_1" xmlns="http://www.w3.org/2000/svg" xmlns:xlink="http://www.w3.org/1999/xlink" 
	 viewBox="0 0 392.663 392.663" xml:space="preserve">
<path style="fill:#FFFFFF;" d="M315.636,21.786c-30.384,0-55.143,24.695-55.143,55.143s24.76,55.143,55.143,55.143
	c30.384,0,55.143-24.76,55.143-55.143S346.085,21.786,315.636,21.786z"/>
<g>
	<path style="fill:#194F82;" d="M315.636,0c-42.408,0-76.994,34.521-76.994,76.994s34.521,76.994,76.994,76.994
		s76.994-34.521,76.994-76.994S358.044,0,315.636,0z M315.636,132.073c-30.384,0-55.143-24.76-55.143-55.143
		s24.76-55.143,55.143-55.143c30.384,0,55.143,24.76,55.143,55.143S346.085,132.073,315.636,132.073z"/>
	<path style="fill:#194F82;" d="M293.592,87.855h22.044c6.012,0,10.925-4.848,10.925-10.925V43.96
		c0-6.012-4.848-10.925-10.925-10.925c-6.077,0-10.925,4.848-10.925,10.925v22.044h-11.119c-6.012,0-10.925,4.848-10.925,10.925
		C282.667,83.006,287.58,87.855,293.592,87.855z"/>
</g>
<path style="fill:#FFC10D;" d="M359.855,215.273h-87.596v144.55c0,6.012,4.848,10.925,10.925,10.925h76.671
	c6.012,0,10.925-4.848,10.925-10.925V226.198C370.78,220.121,365.867,215.273,359.855,215.273z"/>
<path style="fill:#56ACE0;" d="M73.729,149.463l4.978,24.242h56.954c6.012,0,10.925,4.848,10.925,10.925
	c0,6.012-4.848,10.925-10.925,10.925H83.103l3.556,17.519h20.04c6.012,0,10.925,4.848,10.925,10.925
	c0,6.012-4.848,10.925-10.925,10.925H91.248l7.24,35.556h74.473l24.76-121.018L73.729,149.463L73.729,149.463z"/>
<g>
	<path style="fill:#194F82;" d="M359.855,193.487H210.909L221.64,140.8c1.487-6.271-2.909-13.059-10.667-13.059H60.347
		c-7.434,0-11.83,6.335-10.667,13.059l10.731,52.687H32.743c-18.036,0-32.711,14.675-32.711,32.711v155.475
		c0,6.012,4.848,10.925,10.925,10.925s10.925-4.848,10.925-10.925V226.198c0-6.012,4.848-10.925,10.925-10.925h32.194l11.313,55.273
		H61.059c-6.012,0-10.925,4.849-10.925,10.925c0,6.012,4.848,10.925,10.925,10.925h3.103v89.341c0,6.012,4.848,10.925,10.925,10.925
		s10.925-4.848,10.925-10.925v-89.406h99.297v89.341c0,6.012,4.848,10.925,10.925,10.925c6.012,0,10.925-4.848,10.925-10.925
		v-89.341h3.103c6.012,0,10.925-4.848,10.925-10.925c0-6.012-4.848-10.925-10.925-10.925H195.2l11.313-55.273h43.96v144.614
		c0,18.036,14.675,32.711,32.711,32.711h76.671c18.036,0,32.711-14.675,32.711-32.711V226.198
		C392.566,208.162,377.891,193.487,359.855,193.487z M98.489,270.545l-7.24-35.556h15.451c6.012,0,10.925-4.848,10.925-10.925
		c0-6.012-4.848-10.925-10.925-10.925H86.853l-3.556-17.519h52.558c6.012,0,10.925-4.848,10.925-10.925
		c0-6.012-4.848-10.925-10.925-10.925H78.901l-4.978-24.242h123.863l-24.76,121.083H98.489V270.545z M370.78,359.822
		c0,6.012-4.848,10.925-10.925,10.925h-76.606c-6.012,0-10.925-4.848-10.925-10.925v-144.55h87.531
		c6.012,0,10.925,4.848,10.925,10.925V359.822L370.78,359.822z"/>
	<path style="fill:#194F82;" d="M304.97,261.56c-6.012,0-10.925,4.848-10.925,10.925V313.6c0,6.012,4.848,10.925,10.925,10.925
		c6.077,0,10.925-4.848,10.925-10.925v-41.115C315.895,266.408,310.982,261.56,304.97,261.56z"/>
</g>
</svg>