<?xml version="1.0" encoding="utf-8"?>
<!-- Uploaded to: SVG Repo, www.svgrepo.com, Generator: SVG Repo Mixer Tools -->
<svg width="800px" height="800px" viewBox="0 -0.5 1025 1025" class="icon"  version="1.1" xmlns="http://www.w3.org/2000/svg"><path d="M350.910037 481.28c-39.253333 15.36-83.626667-4.266667-99.84-43.52l-58.88-151.04c-15.36-39.253333 4.266667-83.626667 43.52-99.84 39.253333-15.36 93.013333 0.853333 108.373334 40.106667l42.666666 273.066666c15.36 40.106667 3.413333-34.133333-35.84-18.773333z" fill="#FFFFFF" /><path d="M392.723371 529.066667c-12.8 0-17.92-15.36-21.333334-23.04-0.853333-0.853333-0.853333-2.56-0.853333-3.413334v-1.706666c-1.706667-1.706667-3.413333-3.413333-5.12-4.266667-1.706667-0.853333-4.266667-1.706667-8.533333 0-23.04 9.386667-48.64 8.533333-71.68-1.706667s-40.96-28.16-49.493334-52.053333l-58.88-151.04c-9.386667-23.04-8.533333-48.64 1.706667-71.68s28.16-40.96 52.053333-49.493333c23.04-9.386667 50.346667-9.386667 75.093334-0.853334 26.453333 9.386667 46.933333 27.306667 55.466666 50.346667 0.853333 0.853333 0.853333 2.56 0.853334 3.413333l40.106666 264.533334c2.56 4.266667 4.266667 8.533333 5.12 11.093333 8.533333 21.333333-4.266667 28.16-8.533333 29.866667h-5.973333zM376.510037 512.853333zM267.283371 197.973333c-9.386667 0-17.92 1.706667-25.6 4.266667-30.72 11.946667-46.08 46.933333-34.133334 77.653333l58.88 151.04c11.946667 30.72 46.933333 46.08 77.653334 34.133334 6.826667-2.56 12.8-3.413333 19.626666-3.413334l-35.84-229.546666c-10.24-22.186667-35.84-34.133333-60.586666-34.133334z" fill="#EC407A" /><path d="M28.350037 465.92s25.6-128 17.066667-221.866667c0 0 76.8 8.533333 119.466667 8.533334 8.533333 0 34.133333-93.866667 34.133333-102.4l68.266667 25.6v51.2c8.533333 8.533333-22.186667 88.746667 8.533333 119.466666 8.533333 8.533333 25.6 110.933333 51.2 153.6s-298.666667-34.133333-298.666667-34.133333z" fill="#FFFFFF" /><path d="M301.416704 529.92c-23.893333 0-64.853333-4.266667-133.973333-17.066667-71.68-13.653333-142.506667-29.866667-143.36-29.866666-8.533333-1.706667-14.506667-11.093333-12.8-19.626667 0-0.853333 24.746667-127.146667 17.066666-216.746667-0.853333-5.12 1.706667-10.24 5.12-13.653333 3.413333-3.413333 8.533333-5.12 13.653334-5.12 0.853333 0 66.56 7.68 109.226666 8.533333 8.533333-18.773333 24.746667-75.093333 25.6-86.186666 0-5.12 2.56-10.24 7.68-13.653334 4.266667-3.413333 10.24-4.266667 15.36-1.706666l68.266667 25.6c6.826667 2.56 11.093333 8.533333 11.093333 16.213333v46.933333c2.56 8.533333 0.853333 19.626667-0.853333 35.84-3.413333 23.04-9.386667 61.44 5.12 75.093334 5.973333 5.973333 9.386667 17.92 18.773333 52.906666 8.533333 34.133333 21.333333 80.213333 34.986667 104.106667 5.12 8.533333 5.12 18.773333 0 26.453333-5.12 5.12-10.24 11.946667-40.96 11.946667z m-253.44-76.8c103.253333 23.893333 218.453333 44.373333 257.706667 43.52-13.653333-28.16-23.893333-67.413333-32.426667-100.693333-4.266667-14.506667-8.533333-33.28-11.093333-38.4-24.746667-26.453333-17.92-72.533333-12.8-103.253334 0.853333-6.826667 2.56-15.36 2.56-19.626666-0.853333-2.56-1.706667-4.266667-1.706667-6.826667V187.733333l-38.4-14.506666c-4.266667 17.066667-10.24 35.84-10.24 36.693333-14.506667 48.64-22.186667 59.733333-36.693333 59.733333-29.866667 0-75.093333-4.266667-100.693334-6.826666 2.56 72.533333-10.24 156.16-16.213333 190.293333z m133.973333-302.933333z" fill="#EC407A" /><path d="M949.950037 798.72h-750.933333v-324.266667l-77.653333 23.893334c-55.466667 17.066667-133.12-28.16-93.013334-100.693334s236.373333-213.333333 236.373334-213.333333L342.376704 438.613333c19.626667 42.666667 61.44 69.973333 108.373333 69.973334H632.510037c50.346667 0 95.573333-31.573333 111.786667-79.36l73.386667-210.773334 75.946666 40.96c46.933333 25.6 69.973333 81.066667 52.906667 132.266667l-11.946667 34.986667c-17.92 56.32-21.333333 116.053333-10.24 173.226666l25.6 198.826667z" fill="#FCE4EC" /><path d="M949.950037 815.786667h-750.933333c-9.386667 0-17.066667-7.68-17.066667-17.066667V498.346667l-55.466666 17.066666c-39.253333 11.946667-84.48-0.853333-109.226667-30.72-21.333333-26.453333-23.04-60.586667-4.266667-94.72 41.813333-75.093333 233.813333-213.333333 241.493334-219.306666 4.266667-3.413333 10.24-4.266667 15.36-2.56 5.12 1.706667 9.386667 5.973333 11.093333 11.093333l77.653333 253.44c17.066667 35.84 52.906667 58.88 92.16 58.88H632.510037c43.52 0 81.92-27.306667 95.573334-68.266667L802.323371 213.333333c1.706667-5.12 5.12-8.533333 10.24-10.24 4.266667-1.706667 10.24-1.706667 14.506666 0.853334l75.946667 40.96c54.613333 29.866667 80.213333 93.866667 60.586667 152.746666l-11.946667 34.986667c-17.066667 52.906667-20.48 110.08-9.386667 164.693333v0.853334l24.746667 197.973333c0.853333 5.12-0.853333 9.386667-4.266667 13.653333s-7.68 5.973333-12.8 5.973334z m-733.866666-34.133334h714.24l-22.186667-178.346666c-11.946667-60.586667-8.533333-122.88 11.093333-181.76l11.946667-34.986667c14.506667-43.52-4.266667-90.453333-44.373333-112.64L828.776704 242.346667 760.510037 435.2c-18.773333 54.613333-70.826667 91.306667-128 91.306667H450.750037c-52.906667 0-101.546667-31.573333-123.733333-79.36 0-0.853333-0.853333-1.706667-0.853333-1.706667l-70.826667-231.253333C205.843371 250.026667 74.430037 350.72 43.710037 406.186667c-11.946667 22.186667-11.946667 40.96 0.853334 56.32 15.36 18.773333 47.786667 28.16 72.533333 19.626666l77.653333-23.893333c5.12-1.706667 11.093333-0.853333 15.36 2.56s6.826667 8.533333 6.826667 13.653333v307.2z" fill="#EC407A" /><path d="M935.443371 427.52l11.946666-34.986667c17.066667-51.2-5.12-106.666667-52.906666-132.266666l-75.946667-40.96-11.093333 30.72 18.773333 10.24c46.933333 25.6 69.973333 81.066667 52.906667 132.266666l-11.946667 34.986667c-17.92 56.32-21.333333 116.053333-10.24 173.226667l24.746667 197.973333h68.266666l-24.746666-197.973333c-11.946667-57.173333-8.533333-116.906667 10.24-173.226667z" fill="#F8BBD0" /><path d="M130.750037 474.453333l-68.266666 21.333334c18.773333 7.68 40.106667 8.533333 58.88 2.56l9.386666-2.56v-21.333334z" fill="#F06292" /><path d="M949.950037 815.786667h-750.933333c-9.386667 0-17.066667-7.68-17.066667-17.066667V498.346667l-55.466666 17.066666c-39.253333 11.946667-84.48-0.853333-109.226667-30.72-21.333333-26.453333-23.04-60.586667-4.266667-94.72 41.813333-75.093333 233.813333-213.333333 241.493334-219.306666 4.266667-3.413333 10.24-4.266667 15.36-2.56 5.12 1.706667 9.386667 5.973333 11.093333 11.093333l77.653333 253.44c17.066667 35.84 52.906667 58.88 92.16 58.88H632.510037c43.52 0 81.92-27.306667 95.573334-68.266667L802.323371 213.333333c1.706667-5.12 5.12-8.533333 10.24-10.24 4.266667-1.706667 10.24-1.706667 14.506666 0.853334l75.946667 40.96c54.613333 29.866667 80.213333 93.866667 60.586667 152.746666l-11.946667 34.986667c-17.066667 52.906667-20.48 110.08-9.386667 164.693333v0.853334l24.746667 197.973333c0.853333 5.12-0.853333 9.386667-4.266667 13.653333s-7.68 5.973333-12.8 5.973334z m-733.866666-34.133334h714.24l-22.186667-178.346666c-11.946667-60.586667-8.533333-122.88 11.093333-181.76l11.946667-34.986667c14.506667-43.52-4.266667-90.453333-44.373333-112.64L828.776704 242.346667 760.510037 435.2c-18.773333 54.613333-70.826667 91.306667-128 91.306667H450.750037c-52.906667 0-101.546667-31.573333-123.733333-79.36 0-0.853333-0.853333-1.706667-0.853333-1.706667l-70.826667-231.253333C205.843371 250.026667 74.430037 350.72 43.710037 406.186667c-11.946667 22.186667-11.946667 40.96 0.853334 56.32 15.36 18.773333 47.786667 28.16 72.533333 19.626666l77.653333-23.893333c5.12-1.706667 11.093333-0.853333 15.36 2.56s6.826667 8.533333 6.826667 13.653333v307.2z" fill="#EC407A" /><path d="M1008.830037 790.186667c-320.853333 110.933333-669.013333 110.933333-989.866666 0v-85.333334c320.853333 110.933333 669.013333 110.933333 989.866666 0v85.333334z" fill="#F48FB1" /><path d="M513.896704 890.026667c-169.813333 0-338.773333-28.16-500.906667-83.626667-6.826667-2.56-11.093333-8.533333-11.093333-16.213333v-85.333334c0-5.12 2.56-11.093333 6.826667-13.653333 4.266667-3.413333 10.24-4.266667 15.36-2.56 315.733333 109.226667 663.04 109.226667 978.773333 0 5.12-1.706667 11.093333-0.853333 15.36 2.56s6.826667 8.533333 6.826667 13.653333v85.333334c0 7.68-4.266667 13.653333-11.093334 16.213333-161.28 56.32-330.24 83.626667-500.053333 83.626667z m-477.866667-111.786667c308.906667 103.253333 646.826667 103.253333 955.733334 0v-49.493333c-308.906667 101.546667-646.826667 101.546667-955.733334 0v49.493333z m972.8 11.946667z" fill="#EC407A" /><path d="M586.430037 696.32H484.883371c-21.333333 0-38.4-17.066667-38.4-38.4s17.066667-38.4 38.4-38.4h101.546666c21.333333 0 38.4 17.066667 38.4 38.4s-17.066667 38.4-38.4 38.4z" fill="#FFFFFF" /><path d="M586.430037 713.386667H484.883371c-30.72 0-55.466667-24.746667-55.466667-55.466667s24.746667-55.466667 55.466667-55.466667h101.546666c30.72 0 55.466667 24.746667 55.466667 55.466667s-24.746667 55.466667-55.466667 55.466667z m-101.546666-76.8c-11.946667 0-21.333333 9.386667-21.333334 21.333333s9.386667 21.333333 21.333334 21.333333h101.546666c11.946667 0 21.333333-9.386667 21.333334-21.333333s-9.386667-21.333333-21.333334-21.333333H484.883371z" fill="#EC407A" /><path d="M211.816704 350.72m-29.866667 0a29.866667 29.866667 0 1 0 59.733334 0 29.866667 29.866667 0 1 0-59.733334 0Z" fill="#FFFFFF" /><path d="M211.816704 397.653333c-25.6 0-46.933333-21.333333-46.933333-46.933333s21.333333-46.933333 46.933333-46.933333 46.933333 21.333333 46.933333 46.933333-21.333333 46.933333-46.933333 46.933333z m0-59.733333c-6.826667 0-12.8 5.973333-12.8 12.8s5.973333 12.8 12.8 12.8 12.8-5.973333 12.8-12.8-5.973333-12.8-12.8-12.8z" fill="#EC407A" /><path d="M866.323371 168.106667c-15.36-5.12-32.426667 3.413333-37.546667 18.773333L740.883371 448.853333h-324.266667c-16.213333 0-29.866667 13.653333-29.866667 29.866667s13.653333 29.866667 29.866667 29.866667h338.773333c14.506667 3.413333 29.866667-5.12 34.133334-19.626667l94.72-283.306667c5.973333-15.36-2.56-32.426667-17.92-37.546666z" fill="#FFEE58" /><path d="M762.216704 526.506667c-2.56 0-5.12 0-7.68-0.853334H416.616704c-25.6 0-46.933333-21.333333-46.933333-46.933333s21.333333-46.933333 46.933333-46.933333h311.466667L811.710037 181.76c4.266667-11.946667 11.946667-21.333333 23.893334-27.306667 11.093333-5.973333 23.893333-6.826667 35.84-2.56l-5.12 16.213334 5.12-16.213334c11.946667 4.266667 21.333333 11.946667 27.306666 23.893334 5.973333 11.093333 6.826667 23.893333 2.56 35.84L806.590037 494.933333c-6.826667 19.626667-24.746667 31.573333-44.373333 31.573334z m-345.6-60.586667c-6.826667 0-12.8 5.973333-12.8 12.8s5.973333 12.8 12.8 12.8h342.186667c5.973333 1.706667 12.8-2.56 14.506666-8.533333l94.72-283.306667c0.853333-3.413333 0.853333-6.826667-0.853333-9.386667-1.706667-3.413333-4.266667-5.12-7.68-6.826666-3.413333-0.853333-6.826667-0.853333-9.386667 0.853333-3.413333 1.706667-5.12 4.266667-6.826666 7.68L757.096704 454.826667c-2.56 6.826667-8.533333 11.946667-16.213333 11.946666h-324.266667z" fill="#EC407A" /></svg>